<mxfile host="app.diagrams.net" modified="2024-02-23T05:13:48.397Z" agent="Mozilla/5.0 (Windows NT 10.0; Win64; x64) AppleWebKit/537.36 (KHTML, like Gecko) Chrome/122.0.0.0 Safari/537.36 Edg/122.0.0.0" etag="jx9k4hEbvcPneA9SwoBG" version="23.1.6" type="device">
  <diagram name="Page-1" id="IHNb5SA6H4IKDgh-Pkjv">
    <mxGraphModel dx="1426" dy="1885" grid="1" gridSize="10" guides="1" tooltips="1" connect="1" arrows="1" fold="1" page="1" pageScale="1" pageWidth="850" pageHeight="1100" math="0" shadow="0">
      <root>
        <mxCell id="0" />
        <mxCell id="1" parent="0" />
        <mxCell id="UtOCRVMRBtRW9U2B3dOC-17" style="edgeStyle=orthogonalEdgeStyle;rounded=0;orthogonalLoop=1;jettySize=auto;html=1;exitX=0;exitY=0.5;exitDx=0;exitDy=0;entryX=1;entryY=0.5;entryDx=0;entryDy=0;" edge="1" parent="1" source="UtOCRVMRBtRW9U2B3dOC-1" target="UtOCRVMRBtRW9U2B3dOC-14">
          <mxGeometry relative="1" as="geometry" />
        </mxCell>
        <mxCell id="UtOCRVMRBtRW9U2B3dOC-1" value="Draggable" style="rounded=0;whiteSpace=wrap;html=1;" vertex="1" parent="1">
          <mxGeometry x="315" y="420" width="250" height="130" as="geometry" />
        </mxCell>
        <mxCell id="UtOCRVMRBtRW9U2B3dOC-2" value="Sensor Mouse" style="rounded=0;whiteSpace=wrap;html=1;" vertex="1" parent="1">
          <mxGeometry x="310" y="510" width="120" height="60" as="geometry" />
        </mxCell>
        <mxCell id="UtOCRVMRBtRW9U2B3dOC-3" value="Sensor Keyboard" style="rounded=0;whiteSpace=wrap;html=1;" vertex="1" parent="1">
          <mxGeometry x="450" y="510" width="120" height="60" as="geometry" />
        </mxCell>
        <mxCell id="UtOCRVMRBtRW9U2B3dOC-7" style="edgeStyle=orthogonalEdgeStyle;rounded=0;orthogonalLoop=1;jettySize=auto;html=1;exitX=0.5;exitY=1;exitDx=0;exitDy=0;entryX=0.5;entryY=0;entryDx=0;entryDy=0;" edge="1" parent="1" source="UtOCRVMRBtRW9U2B3dOC-12" target="UtOCRVMRBtRW9U2B3dOC-1">
          <mxGeometry relative="1" as="geometry" />
        </mxCell>
        <mxCell id="UtOCRVMRBtRW9U2B3dOC-16" style="edgeStyle=orthogonalEdgeStyle;rounded=0;orthogonalLoop=1;jettySize=auto;html=1;exitX=0;exitY=0.5;exitDx=0;exitDy=0;entryX=1;entryY=0.5;entryDx=0;entryDy=0;" edge="1" parent="1" source="UtOCRVMRBtRW9U2B3dOC-6" target="UtOCRVMRBtRW9U2B3dOC-15">
          <mxGeometry relative="1" as="geometry" />
        </mxCell>
        <mxCell id="UtOCRVMRBtRW9U2B3dOC-6" value="Droppable" style="rounded=0;whiteSpace=wrap;html=1;" vertex="1" parent="1">
          <mxGeometry x="380" y="150" width="120" height="60" as="geometry" />
        </mxCell>
        <mxCell id="UtOCRVMRBtRW9U2B3dOC-9" style="edgeStyle=orthogonalEdgeStyle;rounded=0;orthogonalLoop=1;jettySize=auto;html=1;exitX=0.5;exitY=1;exitDx=0;exitDy=0;" edge="1" parent="1" source="UtOCRVMRBtRW9U2B3dOC-8" target="UtOCRVMRBtRW9U2B3dOC-6">
          <mxGeometry relative="1" as="geometry" />
        </mxCell>
        <mxCell id="UtOCRVMRBtRW9U2B3dOC-8" value="Drag Drop Context" style="rounded=0;whiteSpace=wrap;html=1;" vertex="1" parent="1">
          <mxGeometry x="380" y="20" width="120" height="60" as="geometry" />
        </mxCell>
        <mxCell id="UtOCRVMRBtRW9U2B3dOC-11" style="edgeStyle=orthogonalEdgeStyle;rounded=0;orthogonalLoop=1;jettySize=auto;html=1;exitX=0.5;exitY=1;exitDx=0;exitDy=0;entryX=0.5;entryY=0;entryDx=0;entryDy=0;" edge="1" parent="1" source="UtOCRVMRBtRW9U2B3dOC-10" target="UtOCRVMRBtRW9U2B3dOC-8">
          <mxGeometry relative="1" as="geometry" />
        </mxCell>
        <mxCell id="UtOCRVMRBtRW9U2B3dOC-10" value="Redux" style="rounded=0;whiteSpace=wrap;html=1;" vertex="1" parent="1">
          <mxGeometry x="380" y="-110" width="120" height="60" as="geometry" />
        </mxCell>
        <mxCell id="UtOCRVMRBtRW9U2B3dOC-13" value="" style="edgeStyle=orthogonalEdgeStyle;rounded=0;orthogonalLoop=1;jettySize=auto;html=1;exitX=0.5;exitY=1;exitDx=0;exitDy=0;entryX=0.5;entryY=0;entryDx=0;entryDy=0;" edge="1" parent="1" source="UtOCRVMRBtRW9U2B3dOC-6" target="UtOCRVMRBtRW9U2B3dOC-12">
          <mxGeometry relative="1" as="geometry">
            <mxPoint x="440" y="200" as="sourcePoint" />
            <mxPoint x="440" y="400" as="targetPoint" />
          </mxGeometry>
        </mxCell>
        <mxCell id="UtOCRVMRBtRW9U2B3dOC-12" value="Droppable Context" style="rounded=0;whiteSpace=wrap;html=1;" vertex="1" parent="1">
          <mxGeometry x="380" y="280" width="120" height="60" as="geometry" />
        </mxCell>
        <mxCell id="UtOCRVMRBtRW9U2B3dOC-14" value="Placeholder" style="rounded=0;whiteSpace=wrap;html=1;" vertex="1" parent="1">
          <mxGeometry x="150" y="455" width="120" height="60" as="geometry" />
        </mxCell>
        <mxCell id="UtOCRVMRBtRW9U2B3dOC-15" value="Placeholder" style="rounded=0;whiteSpace=wrap;html=1;" vertex="1" parent="1">
          <mxGeometry x="150" y="150" width="120" height="60" as="geometry" />
        </mxCell>
      </root>
    </mxGraphModel>
  </diagram>
</mxfile>
